# xmcd
#
# Track frame offsets: 
#        150
#        19291
#        36840
#        53704
#        75219
#        96321
#        114564
#        133827
#        158655
#        179783
#        198056
#        219236
#        239595
#        257613
#        275972
#        322244
#
# Disc length: 4758 seconds
#
# Revision: 9
# Processed by: cddbd v1.5.2PL0 Copyright (c) Steve Scherf et al.
# Submitted via: ExactAudioCopy v0.99pb5
#
DISCID=e8129410
DTITLE=Joe Cocker - The Ultimate Collection 1968-2003 - CD 2
DYEAR=2003
DGENRE=Pop
TTITLE0=Could you be loved
TTITLE1=Civilized man
TTITLE2=First we take Manhattan
TTITLE3=The simple things
TTITLE4=N'oubliez jamais
TTITLE5=That's all I need to know - Difendero' (Live) (with Eros Ramaz
TTITLE5=zotti)
TTITLE6=Have a little faith
TTITLE7=Don't let the sun go down on me
TTITLE8=Now that the magic has gone
TTITLE9=Sweet lil' woman
TTITLE10=Feels like forever
TTITLE11=My father's son
TTITLE12=Sorry seems to be the hardest word
TTITLE13=Never tear us apart
TTITLE14=Ruby Lee (Live)
TTITLE15=DATA
EXTD=
EXTT0=
EXTT1=
EXTT2=
EXTT3=
EXTT4=
EXTT5=
EXTT6=
EXTT7=
EXTT8=
EXTT9=
EXTT10=
EXTT11=
EXTT12=
EXTT13=
EXTT14=
EXTT15=
PLAYORDER=
